{"title":"M-720p MP4 AAC x264 BRRip 1931-CC","uid":7701790,"size":2397240780,"categoryP":"video","categoryS":"hd___movies","magnet":"?xt=urn:btih:a7e9bf4ce37ef4ded439896b2494d5257f5a5bdf&amp;dn=M-720p+MP4+AAC+x264+BRRip+1931-CC&amp;tr=udp%3A%2F%2Ftracker.openbittorrent.com%3A80&amp;tr=udp%3A%2F%2Fopen.demonii.com%3A1337&amp;tr=udp%3A%2F%2Ftracker.coppersurfer.tk%3A6969&amp;tr=udp%3A%2F%2Fexodus.desync.com%3A6969","seeders":2,"leechers":2,"uploader":"Caveman44","files":-1,"time":1349548156,"description":" &lt;a href=&quot;http://www.imdb.com/title/tt0022100/&quot; rel=&quot;nofollow&quot; target=&quot;_NEW&quot;&gt;http://www.imdb.com/title/tt0022100/&lt;/a&gt;\n\nSource: M.1931.720p.BluRay.x264-SiNNERS Thanks!\n\nSubs: Brazilian, English, Greek, Hungarian, Italian, Portuguese and Spanish.\n\nSample and Screens included.\n\nGeneral\nComplete name                            : M-720p MP4 AAC x264 BRRip 1931-CC.mp4\nFormat                                   : MPEG-4\nFormat profile                           : Base Media\nCodec ID                                 : isom\nFile size                                : 2.21 GiB\nDuration                                 : 1h 50mn\nOverall bit rate mode                    : Variable\nOverall bit rate                         : 2 856 Kbps\nEncoded date                             : UTC 2012-10-04 10:08:26\n\nVideo\nID                                       : 1\nFormat                                   : AVC\nFormat/Info                              : Advanced Video Codec\nFormat profile                           : &lt;a class=&quot;__cf_email__&quot; href=&quot;/cdn-cgi/l/email-protection&quot; data-cfemail=&quot;d69ebfb1be969ae5f8e7&quot;&gt;[email&amp;#160;protected]&lt;/a&gt;&lt;script cf-hash='f9e31' type=&quot;text/javascript&quot;&gt;\n/* &lt;![CDATA[ */!function(){try{var t=&quot;currentScript&quot;in document?document.currentScript:function(){for(var t=document.getElementsByTagName(&quot;script&quot;),e=t.length;e--;)if(t[e].getAttribute(&quot;cf-hash&quot;))return t[e]}();if(t&amp;&amp;t.previousSibling){var e,r,n,i,c=t.previousSibling,a=c.getAttribute(&quot;data-cfemail&quot;);if(a){for(e=&quot;&quot;,r=parseInt(a.substr(0,2),16),n=2;a.length-n;n+=2)i=parseInt(a.substr(n,2),16)^r,e+=String.fromCharCode(i);e=document.createTextNode(e),c.parentNode.replaceChild(e,c)}}}catch(u){}}();/* ]]&gt; */&lt;/script&gt;\nFormat settings, CABAC                   : Yes\nFormat settings, ReFrames                : 5 frames\nCodec ID                                 : avc1\nCodec ID/Info                            : Advanced Video Coding\nDuration                                 : 1h 50mn\nBit rate                                 : 2 746 Kbps\nMaximum bit rate                         : 17.3 Mbps\nWidth                                    : 864 pixels\nHeight                                   : 720 pixels\nDisplay aspect ratio                     : 1.200\nFrame rate mode                          : Variable\nFrame rate                               : 23.976 fps\nMinimum frame rate                       : 19.048 fps\nMaximum frame rate                       : 24.390 fps\nColor space                              : YUV\nChroma subsampling                       : 4:2:0\nBit depth                                : 8 bits\nScan type                                : Progressive\nBits/(Pixel*Frame)                       : 0.184\nStream size                              : 2.12 GiB (96%)\nWriting library                          : x264 core 112\n\nAudio\nID                                       : 2\nFormat                                   : AAC\nFormat/Info                              : Advanced Audio Codec\nFormat profile                           : LC\nCodec ID                                 : 40\nDuration                                 : 1h 50mn\nBit rate mode                            : Variable\nBit rate                                 : 110 Kbps\nMaximum bit rate                         : 166 Kbps\nChannel(s)                               : 2 channels\nChannel positions                        : Front: L R\nSampling rate                            : 48.0 KHz\nCompression mode                         : Lossy\nDelay relative to video                  : 83ms\nStream size                              : 87.1 MiB (4%)\nLanguage                                 : German\n\nEnjoy...\n\nRequested by varuneric.\n\n@varuneric: A decent source for Reds 1981 is hard to find, so i must pass for that one.Sorry m8","torrent":{"xt":"urn:btih:a7e9bf4ce37ef4ded439896b2494d5257f5a5bdf","amp;dn":"M-720p+MP4+AAC+x264+BRRip+1931-CC","amp;tr":["udp%3A%2F%2Ftracker.openbittorrent.com%3A80","udp%3A%2F%2Fopen.demonii.com%3A1337","udp%3A%2F%2Ftracker.coppersurfer.tk%3A6969","udp%3A%2F%2Fexodus.desync.com%3A6969"],"infoHash":"a7e9bf4ce37ef4ded439896b2494d5257f5a5bdf","infoHashBuffer":{"type":"Buffer","data":[167,233,191,76,227,126,244,222,212,57,137,107,36,148,213,37,127,90,91,223]},"announce":[],"urlList":[]}}